<?xml version="1.0" encoding="UTF-8" standalone="no"?>
<!-- Created with Inkscape (http://www.inkscape.org/) -->

<svg
   xmlns:dc="http://purl.org/dc/elements/1.1/"
   xmlns:cc="http://creativecommons.org/ns#"
   xmlns:rdf="http://www.w3.org/1999/02/22-rdf-syntax-ns#"
   xmlns:svg="http://www.w3.org/2000/svg"
   xmlns="http://www.w3.org/2000/svg"
   xmlns:sodipodi="http://sodipodi.sourceforge.net/DTD/sodipodi-0.dtd"
   xmlns:inkscape="http://www.inkscape.org/namespaces/inkscape"
   width="210mm"
   height="297mm"
   viewBox="0 0 210 297"
   version="1.1"
   id="svg5175"
   inkscape:version="0.92.4 (5da689c313, 2019-01-14)"
   sodipodi:docname="logo.svg">
  <defs
     id="defs5169">
    <clipPath
       clipPathUnits="userSpaceOnUse"
       id="clipPath4109">
      <path
         d="m 285.3695,1472.96 v 1.508 h 2.1789 v -1.172 h 3.0173 v -2.515 h 1.0057 v 4.106 h 0.5866 v 1.789 h 0.8382 v -0.783 h 2.4302 v -5.866 h 1.3413 v 2.095 h 0.7541 v 1.928 h 0.6704 v 1.005 h 2.3467 v -5.112 h 1.341 v 5.364 h 2.5145 v -3.437 h 1.5086 v 3.688 h 3.8552 v -5.28 h 1.5923 v -1.326 h 1.0057 v 5.935 h 0.6703 v 0.839 h 0.587 v 0.95 h 1.9276 v -1.034 h 0.8378 v -3.604 h 2.8496 v -4.107 h 1.2573 v 1.593 h 2.2629 v 4.609 h 0.9217 v 1.509 h 0.5869 v 1.034 h 0.5866 V 1480 h 0.6703 v -3.324 h 0.8382 v -1.369 h 0.5869 v -1.257 h 0.6704 v -4.61 h 2.933 v 2.43 h 0.7544 v 2.85 h 0.5028 v 1.425 h 1.7602 v -1.425 h 0.6703 v -3.185 h 0.5869 v -3.604 h 2.5139 v 3.939 h 0.5869 v -2.346 h 1.3411 v 1.089 h 2.6817 v -4.525 h 1.0894 v 1.257 h 0.7545 v 1.089 h 1.0897 v -1.508 h 0.9216 v 3.687 h 0.3354 v -2.095 h 1.0057 v 0.671 h 2.2629 v -1.174 h 1.6761 v -1.341 h 1.4247 v -1.424 h 1.0898 v 1.257 h 2.6817 v 1.508 h 0.6707 v -2.43 h 1.2573 v 3.017 h 1.6757 v -1.593 h 2.5983 v -1.005 h 1.9276 v -1.509 h 1.5923 v 0.755 H 367 v -3.604 h -88 v 3.52 h 2.1789 v -1.341 h 1.5085 v 0.922 h 0.5866 v 8.213 z"
         id="path4107"
         inkscape:connector-curvature="0" />
    </clipPath>
    <clipPath
       clipPathUnits="userSpaceOnUse"
       id="clipPath4113">
      <path
         d="M 0,0 H 1440 V 1499 H 0 Z"
         id="path4111"
         inkscape:connector-curvature="0" />
    </clipPath>
  </defs>
  <sodipodi:namedview
     id="base"
     pagecolor="#ffffff"
     bordercolor="#666666"
     borderopacity="1.0"
     inkscape:pageopacity="0.0"
     inkscape:pageshadow="2"
     inkscape:zoom="0.35"
     inkscape:cx="-87.142857"
     inkscape:cy="560"
     inkscape:document-units="mm"
     inkscape:current-layer="layer1"
     showgrid="false"
     inkscape:window-width="1920"
     inkscape:window-height="1017"
     inkscape:window-x="-8"
     inkscape:window-y="-8"
     inkscape:window-maximized="1" />
  <metadata
     id="metadata5172">
    <rdf:RDF>
      <cc:Work
         rdf:about="">
        <dc:format>image/svg+xml</dc:format>
        <dc:type
           rdf:resource="http://purl.org/dc/dcmitype/StillImage" />
        <dc:title></dc:title>
      </cc:Work>
    </rdf:RDF>
  </metadata>
  <g
     inkscape:label="Layer 1"
     inkscape:groupmode="layer"
     id="layer1">
    <g
       id="g4799"
       clip-path="url(#clipPath4109)"
       transform="matrix(0.35277777,0,0,-0.35277777,-137.00377,667.70699)">
      <g
         id="g4797"
         clip-path="url(#clipPath4113)">
        <path
           inkscape:connector-curvature="0"
           id="path4795"
           style="fill:#6c63ff;fill-opacity:1;fill-rule:nonzero;stroke:none"
           d="m 274,1456.646 h 98 V 1485 h -98 z" />
      </g>
    </g>
  </g>
</svg>
